<svg width="25" height="25" viewBox="0 0 25 25" fill="none" xmlns="http://www.w3.org/2000/svg">
<path d="M15.184 18.9055L15.1842 18.9057C15.6052 19.3162 16.0956 19.6339 16.6284 19.849L13.5716 22.8308C13.5716 22.8308 13.5716 22.8308 13.5716 22.8309C12.5648 23.8129 10.9224 23.8129 9.9157 22.8308L9.91569 22.8308L6.94699 19.935C7.55508 19.7219 8.1142 19.3784 8.5861 18.9183L8.58629 18.9181L11.8916 15.6937L15.184 18.9055Z" stroke="white" stroke-width="2"/>
<path d="M13.5719 2.16886L16.6276 5.14792C16.0953 5.36282 15.6052 5.68021 15.1843 6.09026L15.1841 6.09046L11.8913 9.30085L8.58597 6.07791L8.58573 6.07767C8.11407 5.61808 7.55534 5.2749 6.9477 5.06195L9.91535 2.16883L9.91538 2.1688C10.9221 1.18726 12.5648 1.18718 13.5719 2.16882C13.5719 2.16883 13.5719 2.16885 13.5719 2.16886ZM12.1262 9.52983L12.1258 9.52948C12.126 9.52962 12.1261 9.52977 12.1263 9.52992L12.1262 9.52983Z" stroke="white" stroke-width="2"/>
<mask id="path-3-inside-1_448_2974" fill="white">
<path d="M23.6821 10.5915L20.9192 8.01028C20.8584 8.03304 20.7925 8.04725 20.7229 8.04725H19.4667C18.8172 8.04725 18.1815 8.29335 17.7225 8.7224L14.1229 12.0853C13.7861 12.4001 13.3434 12.5575 12.9012 12.5575C12.4586 12.5575 12.0163 12.4001 11.6795 12.0856L8.06628 8.7101C7.60736 8.28096 6.97159 8.03496 6.32212 8.03496H4.77745C4.71156 8.03496 4.65 8.02045 4.59187 8L1.81793 10.5915C0.394023 11.9217 0.394023 14.0784 1.81793 15.4086L4.59176 18C4.64999 17.9796 4.71156 17.965 4.77745 17.965H6.32212C6.97159 17.965 7.60736 17.719 8.06628 17.29L11.6792 13.9148C12.3322 13.3052 13.4706 13.305 14.1229 13.915L17.7225 17.2777C18.1815 17.7067 18.8172 17.9528 19.4667 17.9528H20.7229C20.7925 17.9528 20.8584 17.967 20.9192 17.9898L23.6821 15.4086C25.1059 14.0783 25.1059 11.9217 23.6821 10.5915"/>
</mask>
<path d="M20.9192 8.01028L22.2845 6.54882L21.3789 5.70279L20.2182 6.13714L20.9192 8.01028ZM17.7225 8.7224L19.0879 10.1838L19.0884 10.1834L17.7225 8.7224ZM14.1229 12.0853L15.4883 13.5468L15.4883 13.5468L14.1229 12.0853ZM11.6795 12.0856L10.3142 13.5471L10.3146 13.5475L11.6795 12.0856ZM8.06628 8.7101L6.70027 10.1709L6.70095 10.1716L8.06628 8.7101ZM4.59187 8L5.25573 6.11339L4.1123 5.71104L3.22654 6.53854L4.59187 8ZM1.81793 10.5915L3.18326 12.053L3.18326 12.053L1.81793 10.5915ZM1.81793 15.4086L3.18326 13.9472L3.18326 13.9471L1.81793 15.4086ZM4.59176 18L3.22643 19.4615L4.11152 20.2883L5.25437 19.8871L4.59176 18ZM8.06628 17.29L6.70095 15.8285L6.70044 15.829L8.06628 17.29ZM11.6792 13.9148L10.3144 12.4527L10.3138 12.4533L11.6792 13.9148ZM14.1229 13.915L12.7569 15.3758L12.7576 15.3765L14.1229 13.915ZM17.7225 17.2777L19.0884 15.8167L19.0878 15.8162L17.7225 17.2777ZM20.9192 17.9898L20.2177 19.8628L21.3786 20.2976L22.2845 19.4513L20.9192 17.9898ZM23.6821 15.4086L25.0475 16.8701L25.0475 16.87L23.6821 15.4086ZM25.0475 9.13004L22.2845 6.54882L19.5539 9.47174L22.3168 12.053L25.0475 9.13004ZM20.2182 6.13714C20.3454 6.08956 20.5173 6.04725 20.7229 6.04725V10.0472C21.0677 10.0472 21.3714 9.97651 21.6202 9.88342L20.2182 6.13714ZM20.7229 6.04725H19.4667V10.0472H20.7229V6.04725ZM19.4667 6.04725C18.329 6.04725 17.1997 6.47331 16.3567 7.26142L19.0884 10.1834C19.1632 10.1134 19.3055 10.0472 19.4667 10.0472V6.04725ZM16.3572 7.26096L12.7576 10.6239L15.4883 13.5468L19.0879 10.1838L16.3572 7.26096ZM12.7576 10.6239C12.82 10.5655 12.8775 10.5575 12.9012 10.5575V14.5575C13.8094 14.5575 14.7521 14.2346 15.4883 13.5468L12.7576 10.6239ZM12.9012 10.5575C12.9245 10.5575 12.982 10.5655 13.0444 10.6238L10.3146 13.5475C11.0505 14.2346 11.9927 14.5575 12.9012 14.5575V10.5575ZM13.0448 10.6242L9.43161 7.24864L6.70095 10.1716L10.3142 13.5471L13.0448 10.6242ZM9.4323 7.24928C8.58908 6.46079 7.45961 6.03496 6.32212 6.03496V10.035C6.48356 10.035 6.62563 10.1011 6.70027 10.1709L9.4323 7.24928ZM6.32212 6.03496H4.77745V10.035H6.32212V6.03496ZM4.77745 6.03496C5.00803 6.03496 5.17896 6.08638 5.25573 6.11339L3.92802 9.88661C4.12103 9.95453 4.4151 10.035 4.77745 10.035V6.03496ZM3.22654 6.53854L0.452595 9.13004L3.18326 12.053L5.95721 9.46146L3.22654 6.53854ZM0.452596 9.13004C-1.81753 11.2509 -1.81753 14.7493 0.452596 16.8701L3.18326 13.9471C2.60558 13.4075 2.60558 12.5926 3.18326 12.053L0.452596 9.13004ZM0.452595 16.8701L3.22643 19.4615L5.9571 16.5385L3.18326 13.9472L0.452595 16.8701ZM5.25437 19.8871C5.17878 19.9136 5.00808 19.965 4.77745 19.965V15.965C4.41504 15.965 4.1212 16.0455 3.92916 16.113L5.25437 19.8871ZM4.77745 19.965H6.32212V15.965H4.77745V19.965ZM6.32212 19.965C7.45959 19.965 8.58898 19.5392 9.43213 18.751L6.70044 15.829C6.62574 15.8989 6.48358 15.965 6.32212 15.965V19.965ZM9.43162 18.7515L13.0445 15.3762L10.3138 12.4533L6.70095 15.8285L9.43162 18.7515ZM13.0439 15.3768C12.9946 15.4228 12.9518 15.4428 12.9306 15.4506C12.9105 15.4579 12.9015 15.4575 12.9012 15.4575C12.901 15.4575 12.8917 15.4579 12.8713 15.4504C12.8498 15.4426 12.8065 15.4222 12.7569 15.3758L15.489 12.4542C14.0672 11.1247 11.7353 11.1265 10.3144 12.4527L13.0439 15.3768ZM12.7576 15.3765L16.3572 18.7392L19.0878 15.8162L15.4882 12.4535L12.7576 15.3765ZM16.3567 18.7387C17.1997 19.5268 18.329 19.9528 19.4667 19.9528V15.9528C19.3055 15.9528 19.1632 15.8867 19.0884 15.8167L16.3567 18.7387ZM19.4667 19.9528H20.7229V15.9528H19.4667V19.9528ZM20.7229 19.9528C20.5176 19.9528 20.3455 19.9106 20.2177 19.8628L21.6207 16.1169C21.3712 16.0234 21.0674 15.9528 20.7229 15.9528V19.9528ZM22.2845 19.4513L25.0475 16.8701L22.3168 13.9471L19.5539 16.5284L22.2845 19.4513ZM25.0475 16.87C27.3175 14.7492 27.3175 11.2509 25.0475 9.13007L22.3168 12.0529C22.8944 12.5926 22.8944 13.4075 22.3168 13.9472L25.0475 16.87Z" fill="white" mask="url(#path-3-inside-1_448_2974)"/>
</svg>
